<svg width="41" height="41" viewBox="0 0 41 41" fill="none" xmlns="http://www.w3.org/2000/svg">
<g id="cafe-outline">
<g id="Vector">
<path d="M29 6.75H34C34.3315 6.75 34.6495 6.8817 34.8839 7.11612C35.1183 7.35054 35.25 7.66848 35.25 8V10.6562C35.25 11.6094 34.8714 12.5235 34.1974 13.1974C33.5235 13.8714 32.6094 14.25 31.6562 14.25H29M7.75 6.75H29V21.75C29 22.5708 28.8383 23.3835 28.5242 24.1418C28.2102 24.9001 27.7498 25.5891 27.1694 26.1694C26.5891 26.7498 25.9001 27.2102 25.1418 27.5242C24.3835 27.8383 23.5708 28 22.75 28H14C12.3424 28 10.7527 27.3415 9.58058 26.1694C8.40848 24.9973 7.75 23.4076 7.75 21.75V6.75ZM5.25 33H31.5Z" fill="#28AFAF"/>
<path d="M29 6.75H34C34.3315 6.75 34.6495 6.8817 34.8839 7.11612C35.1183 7.35054 35.25 7.66848 35.25 8V10.6562C35.25 11.6094 34.8714 12.5235 34.1974 13.1974C33.5235 13.8714 32.6094 14.25 31.6562 14.25H29M29 6.75H7.75V21.75C7.75 23.4076 8.40848 24.9973 9.58058 26.1694C10.7527 27.3415 12.3424 28 14 28H22.75C23.5708 28 24.3835 27.8383 25.1418 27.5242C25.9001 27.2102 26.5891 26.7498 27.1694 26.1694C27.7498 25.5891 28.2102 24.9001 28.5242 24.1418C28.8383 23.3835 29 22.5708 29 21.75V6.75ZM5.25 33H31.5" stroke="black" stroke-width="2" stroke-linecap="round" stroke-linejoin="round"/>
</g>
</g>
</svg>
